<?xml version="1.0" encoding="utf-8"?>
<!-- Generator: Adobe Illustrator 28.0.0, SVG Export Plug-In . SVG Version: 6.00 Build 0)  -->
<svg version="1.1" id="Camada_1" xmlns="http://www.w3.org/2000/svg" xmlns:xlink="http://www.w3.org/1999/xlink" x="0px" y="0px"
	 viewBox="0 0 2000 2000" style="enable-background:new 0 0 2000 2000;" xml:space="preserve">
<style type="text/css">
	.st0{fill:url(#SVGID_1_);}
	.st1{fill:url(#SVGID_00000116196851843991420630000001159295620589603498_);}
	.st2{fill:#FFFFFF;}
</style>
<g>
	<g>
		<linearGradient id="SVGID_1_" gradientUnits="userSpaceOnUse" x1="1115.9381" y1="409.9165" x2="710.1091" y2="1457.5886">
			<stop  offset="0" style="stop-color:#FFFFFF"/>
			<stop  offset="1" style="stop-color:#000000"/>
		</linearGradient>
		<path class="st0" d="M1050.3,1702.1l-415-414.9c-85.5-85.5-133.5-199.2-135.2-320.4c-1.7-124.1,50.2-248,142.3-340.1L971,297.9
			v270.7c0,45.3-18,88.7-50,120.8l-115,115c-12.7,12.8-23.9,27-33.3,42.3c-20.5,33.9-31.3,73.3-31.3,113.9
			c0,59,22.9,114.3,64.6,155.8l207.3,207.4c23.7,23.7,37,55.8,37,89.4V1702.1z"/>
	</g>
	<g>
		
			<linearGradient id="SVGID_00000129919398796658581930000001895273108431709608_" gradientUnits="userSpaceOnUse" x1="1338.1482" y1="483.0082" x2="932.3192" y2="1530.6803">
			<stop  offset="0" style="stop-color:#FFFFFF"/>
			<stop  offset="1" style="stop-color:#000000"/>
		</linearGradient>
		<path style="fill:url(#SVGID_00000129919398796658581930000001895273108431709608_);" d="M1265.1,1386.7h-23.5l-158.8-158.8l0,0
			l-134.8-134.8c-26.2-26.2-40.9-61.7-40.9-98.7V710.8l334.8,334.8c11-26.6,16.8-55.7,16.8-85.1c0-59-23-114.4-64.6-156.2
			l-114.8-114.7c-32.1-32-50.1-75.5-50.1-120.8V298.3l328.8,328.8c89.8,89.8,140.2,205.6,142,326.2v0
			c1.4,97.3-26.6,190.1-81.2,269.2l0.3,0.3l-10.9,14.3c-1.4,1.9-2.8,3.7-4.2,5.4l-0.1,0.1c-11.3,14.6-24.5,29.6-39.2,44.4
			L1265.1,1386.7z"/>
	</g>
	<path d="M713.1,960.5c0-45.7,12.2-90.1,35.5-128.7c10.5-17.2,23.1-33.1,37.4-47.5l106.7-106.7c32-32,50-75.5,50-120.8V366.4
		L662.4,646.7c-86.7,86.7-135.6,203.2-134,319.7c1.6,113.6,46.6,220.5,126.9,300.7l366.6,366.5v-208.8c0-33.5-13.3-65.6-37-89.4
		L786,1136.4C738.9,1089.5,713.1,1027.1,713.1,960.5z"/>
	<path d="M1471.6,953.7c-1.7-113.2-49.2-222.1-133.7-306.6l-280.4-280.4V557c0,45.3,18,88.8,50.1,120.8l106.5,106.4
		c47.1,47.1,72.9,109.6,72.9,176.2c0,45.8-12.3,90.3-35.5,128.6c-0.8,1.3-1.6,2.6-2.5,3.9L935.4,779.3v203.4
		c0,37,14.7,72.5,40.9,98.7l146.6,146.6l0,0l130.5,130.5l0,0l0,0l75.8-75.8c0.1-0.1,0.1-0.1,0.2-0.2l15.2-15.2
		c13.4-13.5,25.9-27.5,36.9-41.8l0,0c2.1-2.6,4.1-5.2,6-7.8C1444,1140.9,1473,1049.6,1471.6,953.7z"/>
	<g>
		<path class="st2" d="M795.7,1126.6c-44.4-44.3-68.8-103.2-68.8-166.1c0-43.2,11.6-85.2,33.4-121.5c10-16.2,21.9-31.4,35.4-44.9
			l31-31l79.7-79.8c32-32,50-75.5,50-120.8V333L705.7,583.8L652.6,637c-89.3,89.3-139.7,209.5-138,329.6
			c1.7,117.3,48.2,227.5,131,310.3l390.2,390.1v-247.9c0-33.5-13.3-65.7-37-89.4L795.7,1126.6z M1008.1,1600.3l-343-342.9
			c-77.7-77.6-121.3-181.1-122.9-291.1c-1.5-112.7,45.9-225.6,129.9-309.7l45.8-45.8l210.9-211v151.3c0,45.3-18,88.7-50,120.8
			l-71.2,71.2l-31.4,31.5c-15.1,15.1-28.3,32-39.4,50.1c-24.5,40.6-37.5,87.6-37.5,135.9c0,70.3,27.3,136.2,77,185.7l194.9,195
			c23.7,23.7,37,55.8,37,89.3V1600.3z"/>
	</g>
	<g>
		<path class="st2" d="M1485.4,953.6L1485.4,953.6c-0.4-29.9-4-59.5-10.5-88.5c-18.8-84.2-62.5-162.9-127.3-227.7l-304-304v229.4
			c0,45.3,18,88.8,50.1,120.8L1204.3,794c35.7,35.7,58.5,80.8,66.1,129.7c1.9,12.1,2.8,24.3,2.8,36.8c0,38.9-9.3,76.7-27,110
			L921.6,745.9v242.4c0,37,14.7,72.5,40.9,98.7l150.6,150.6l134.5,134.5h11.5l95.3-95.3c14.3-14.4,27.1-28.9,38-43l0.2-0.3
			c1.4-1.8,2.7-3.5,4.1-5.3l2.1-2.7l0-0.1C1456.9,1146.5,1486.9,1052.4,1485.4,953.6z M1376.4,1209.3c-1.9,2.5-3.7,5-5.7,7.5
			l-6.6,8.4c-8.7,10.6-18.5,21.5-29.2,32.3l-14.6,14.6c-0.4,0.3-0.6,0.6-0.8,0.7l-66.1,66.1l-263.2-263.2
			c-26.2-26.2-40.9-61.7-40.9-98.7V812.6l79.1,79.1l223,223l9.3-14.2c0.9-1.3,1.7-2.7,2.7-4.3c24.5-40.4,37.5-87.4,37.5-135.7
			c0-13.5-1-26.8-3-39.9c-8.3-55.1-33.9-106-74-146.1l-102.5-102.4c-32.1-32-50.1-75.5-50.1-120.8V400.1l256.8,256.8
			c62.6,62.6,104.3,139,121.2,220.4c5.2,25.1,8.1,50.8,8.5,76.6C1459.1,1046.9,1431,1135.2,1376.4,1209.3z"/>
	</g>
</g>
</svg>
