<?xml version="1.0" encoding="UTF-8"?>
<svg id="Layer_1" data-name="Layer 1" xmlns="http://www.w3.org/2000/svg" xmlns:xlink="http://www.w3.org/1999/xlink" viewBox="0 0 797.16 499.12">
  <defs>
    <style>
      .cls-1 {
        fill: url(#linear-gradient-3);
      }

      .cls-2 {
        fill: url(#linear-gradient-2);
      }

      .cls-3 {
        fill: url(#linear-gradient);
      }
    </style>
    <linearGradient id="linear-gradient" x1="398.91" y1="17.76" x2="52.43" y2="379.99" gradientUnits="userSpaceOnUse">
      <stop offset="0" stop-color="#fff"/>
      <stop offset="1" stop-color="#000"/>
    </linearGradient>
    <linearGradient id="linear-gradient-2" x1="285.61" y1="441.34" x2="271.85" y2="107.62" xlink:href="#linear-gradient"/>
    <linearGradient id="linear-gradient-3" x1="222.58" y1="100.83" x2="411.1" y2="393.7" gradientTransform="translate(-158.13 -67.07)" xlink:href="#linear-gradient"/>
  </defs>
  <g>
    <g>
      <path class="cls-3" d="M161.35,0v73.1c0,18.32-7.28,35.89-20.23,48.84l-40.79,40.8c-5.57,5.59-10.48,11.82-14.57,18.5-9.06,15.02-13.82,32.35-13.82,50.13,0,25.93,10.06,50.24,28.39,68.51l77.63,77.67c12.7,12.71,19.83,29.94,19.83,47.91v73.65L49.44,350.79C18.17,319.54.64,277.94.01,233.68c-.6-45.35,18.42-90.73,52.19-124.49L161.35,0Z"/>
      <path class="cls-2" d="M354.28,228.75c.55,37.33-10.76,72.87-32.75,102.73-.76,1.02-1.53,2.04-2.34,3.06-4.3,5.57-9.17,11.02-14.38,16.27l-5.91,5.91s-.06.04-.09.08l-29.54,29.54-50.81-50.81,35.52-35.61c4.96-4.93,9.55-10.63,13.63-16.95.32-.49.64-1,.96-1.51,9.04-14.91,13.82-32.22,13.82-50.07,0-25.93-10.08-50.28-28.41-68.63l-40.72-40.69c-12.97-12.96-20.26-30.54-20.26-48.87V.15l109.2,109.2c32.92,32.92,51.41,75.33,52.07,119.4Z"/>
    </g>
    <path class="cls-1" d="M319.19,334.54c-4.3,5.57-9.17,11.02-14.38,16.27l-5.91,5.91s-.06.04-.09.08l-29.54,29.54-104.44-104.44c-12.4-12.4-19.37-29.23-19.37-46.77v-74.31s173.74,173.74,173.74,173.74Z"/>
  </g>
  <g>
    <g>
      <path d="M457.09,138.74c-34.79.2-59.25,24.21-59.25,59.68s23.8,59.25,59.9,59.25c20.28,0,37-7.28,48.46-19.82l-13.43-14.31c-8.59,8.79-20.28,13.65-33.05,13.65-18.49,0-32.37-11.23-36.33-29.3h88.52c3.1-42.29-13.65-69.15-54.84-69.15ZM422.96,189.37c2.87-18.72,15.87-30.38,34.36-30.38s31.71,11.46,32.6,30.38h-66.96Z"/>
      <path d="M539.47,93.37v163.41h25.34V93.37h-25.34Z"/>
      <path d="M735.04,170.45c0-8.39,7.28-11.69,17.18-11.69s23.35,3.98,33.7,10.35l9.25-18.72c-10.58-7.48-26.2-11.89-40.96-11.89-22.47,0-43.18,10.13-43.18,33.91-.23,42.29,61.44,28.87,61.44,52.87,0,8.79-8.36,12.55-19.15,12.55-12.77,0-29.07-5.52-39.2-14.53l-9.04,18.06c11.69,10.56,29.95,16.3,47.13,16.3,23.58,0,44.94-10.81,44.94-34.81.2-42.5-62.12-30.83-62.12-52.4Z"/>
    </g>
    <g>
      <path d="M411.9,301.81h5.47l21.4,28.22v-28.22h5.47v37.21h-5.47l-21.4-28.22v28.22h-5.47v-37.21Z"/>
      <path d="M474.78,306.9v10.62h19.72v5.09h-19.72v11.32h21.83v5.09h-27.36v-37.21h27.36v5.09h-21.83Z"/>
      <path d="M530.09,306.9h-12.19v-5.09h29.9v5.09h-12.24v32.12h-5.47v-32.12Z"/>
      <path d="M567.9,301.81h6.07l9.15,28.38,9.32-28.38h6.07l9.32,28.38,9.15-28.38h6.07l-12.24,37.21h-5.47l-9.8-29.63-9.91,29.63h-5.47l-12.24-37.21Z"/>
      <path d="M643.56,320.39c0-10.46,8.88-19.23,19.34-19.23s19.23,8.78,19.23,19.23-8.78,19.28-19.23,19.28-19.34-8.83-19.34-19.28ZM676.55,320.39c0-7.69-6.23-14.19-13.65-14.19s-13.71,6.5-13.71,14.19,6.28,14.25,13.71,14.25,13.65-6.5,13.65-14.25Z"/>
      <path d="M725.03,325.53l9.48,13.49h-6.28l-9.1-12.95h-8.56v12.95h-5.47v-37.21h15.66c7.85,0,13.81,5.04,13.81,12.13,0,5.74-3.9,10.13-9.53,11.59ZM710.57,320.98h9.43c5.36,0,8.99-2.65,8.99-7.04s-3.63-7.04-8.99-7.04h-9.43v14.08Z"/>
      <path d="M757.64,301.81h5.47v19.39l17.55-19.39h6.99l-15.28,16.74,16.3,20.48h-6.88l-13.27-16.68-5.42,5.8v10.89h-5.47v-37.21Z"/>
    </g>
    <g>
      <path d="M623.85,229.61c1.76-1.66,3.3-3.81,4.58-6.36,1.26-2.52,2.22-5.29,2.84-8.24.62-2.94.9-6.08.82-9.33-.08-3.27-.6-6.51-1.54-9.65-3.06-9.91-4.38-12.76-8.56-22.86-4.18-10.08-8.29-20.24-12.24-30.21l-.28-.72h-28.39l41.61,88.44,1.15-1.08Z"/>
      <path d="M673.39,142.26l-35.29,88.63c-2.29,5.5-4.48,10.54-6.51,14.99-2.03,4.45-4.19,8.33-6.42,11.55-2.19,3.15-4.73,5.64-7.56,7.38-5.65,3.48-14.29,3.08-23.99.96l-.89-.19-7.12,15.42,1.3.35c6.85,1.83,16.65,2.9,23.37,3.15,7.46,0,13.78-1.24,18.8-3.69,5-2.44,9.43-5.86,13.17-10.17,3.69-4.25,7.06-9.35,10-15.16,2.94-5.84,6.03-12.2,9.19-18.95l38.4-94.25h-26.45Z"/>
    </g>
  </g>
</svg>