<?xml version="1.0" encoding="UTF-8"?><svg id="Camada_1" xmlns="http://www.w3.org/2000/svg" viewBox="0 0 900 900"><defs><style>.cls-1{fill:#fff;fill-rule:evenodd;}.cls-1,.cls-2{stroke-width:0px;}</style></defs><path class="cls-2" d="m877.22,450c0,235.95-191.27,427.22-427.22,427.22S22.78,685.95,22.78,450,214.05,22.78,450,22.78s427.22,191.27,427.22,427.22Z"/><path class="cls-1" d="m459.86,201.87c26.58,1,54.84,6.29,81.42,16.88,31.91,12.57,67.46,34.12,97.71,69.53,33.57,39.07,49.87,80.12,56.5,119.55.68,4.96,3.64,23.16,3.64,31.46v21.19c-1.34,18.21-3.64,37.1-8.98,55.63-9.95,35.09-27.58,72.51-62.16,107.6-34.9,35.44-72.12,53.98-107.99,64.57-9.3,2.66-19.94,5.28-29.57,6.61-7.32,1-20.95,3.3-29.92,3.3h-21.27c-44.21-2.3-90.07-15.23-133.92-46.04,1.98-4.63,4.98-9.95,9.63-14.58,1.98-2.33,15.29-14.9,18.61-14.9,1.01,0,12.3,7.61,18.28,10.6,26.93,14.22,54.52,21.84,81.74,23.85,1.33,0,4.33.65,5.3.65h21.93c15.61-1.65,30.58-3.3,46.19-7.94,30.58-8.94,63.46-24.85,93.71-56.28,25.6-26.83,40.2-54.98,48.53-82.13,1.98-6.97,4-14.22,5.34-20.87,1.66-9.59,2.99-19.86,4-29.45v-22.52c-1.01-13.9-3.32-28.8-7.32-43.06-7.32-26.5-19.61-53.3-41.86-79.47-23.26-28.15-50.51-45.68-75.43-56.63-7.32-2.98-14.96-5.96-22.28-8.26-6.99-2.33-14.28-3.63-20.95-5.31-3.64-.68-26.25-3.63-29.89-3.63h-21.93c-14.28.65-29.24,2.98-43.52,6.97-25.93,6.97-52.17,18.89-77.78,40.08-27.91,22.52-46.19,49.34-57.51,74.16-1.98,3.99-4,8.94-5.66,13.58-3.64,9.26-6.63,18.53-8.29,27.8-1.33,6.61-4.65,25.17-4.65,34.12v21.87c1.33,23.52,6.31,46.36,16.3,69.85,17.95-74.52,113.33-116.22,159.19-127.17,11.64-2.98,23.94-6.28,35.88-9.27,40.53-10.27,92.05-28.8,122.63-80.12,3.32-5.96,6.99-11.92,9.95-17.89-2.67,11.6-6.31,24.17-11.65,36.42-4.65,10.27-9.95,22.19-15.61,33.11-2.67,5.31-6.31,10.6-9.3,15.91-29.24,49.67-83.08,80.12-123.96,94.02-18.93,6.61-37.89,7.94-56.82,11.6,9.63,2.98,19.94,3.98,29.57,3.98l12.94-.32c48.86-4.96,100.35-21.87,146.9-76.17,1.01,9.59,3.64,20.19,3.64,30.13,0,75.17-74.1,115.24-131.61,124.83-5.66.65-10.64,3.31-15.94,4.31-31.58,5.31-63.46,14.9-94.72,37.1-.65.32-1.33,1.33-2.34,1.98-23.94,16.56-35.88,40.08-38.22,60.26-17.63-23.52-20.59-49.02-26.25-71.86-1.34-5.64-6.96-9.59-9.95-14.26-6.99-10.6-12.95-21.19-17.96-31.78-2.34-5.31-4.98-11.27-6.99-16.23-4.33-11.24-8.29-24.17-10.64-35.09-1.33-6.97-5.66-32.46-5.66-43.38v-21.51c0-13.9,2.67-28.15,5.33-41.73,9.95-51.32,44.53-114.89,107.02-155.29,6.31-3.99,12.94-7.94,19.61-11.6,8.29-4.63,17.27-8.62,25.92-11.92,26.25-10.27,54.52-15.91,81.09-16.88h19.94l.06.06Z"/></svg>